# xmcd
# Track frame offsets:
# 150
# 18140
# 33985
# 59320
# 91391
# 117492
# 135488
# 161119
# 178298
# 198447
# 218798
# 239494
#
# Disc length: 3445 seconds
# Revision: 0
# Processed by: cddbd v1.5.2PL0 Copyright (c) Steve Scherf et al.
# Submitted via: VisiTrax 2.10.2.252 - For more info visit www.synapsa.com
#
DISCID=a80d730c
DTITLE=Stevie Cochran - 12 Reasons
DYEAR=2010
DGENRE=Rockblues
TTITLE0=Wolfman Boogie
TTITLE1=Rebound
TTITLE2=Shame on you
TTITLE3=Confused and misunderstood
TTITLE4=Just abuot to give up
TTITLE5=U amaze me
TTITLE6=The Bitterness
TTITLE7=Trying to get through
TTITLE8=Blind man
TTITLE9=Love somebody
TTITLE10=Outside looking
TTITLE11=I´ll be there
EXTD=
EXTT0=
EXTT1=
EXTT2=
EXTT3=
EXTT4=
EXTT5=
EXTT6=
EXTT7=
EXTT8=
EXTT9=
EXTT10=
EXTT11=
PLAYORDER=
